<?xml version="1.0" encoding="UTF-8" standalone="no"?>
<svg
   width="512"
   height="512"
   viewBox="0 0 512 512"
   version="1.1"
   id="svg10"
   sodipodi:docname="yellow-floppy4.svg"
   inkscape:version="1.4.3 (0d15f75042, 2025-12-25)"
   xmlns:inkscape="http://www.inkscape.org/namespaces/inkscape"
   xmlns:sodipodi="http://sodipodi.sourceforge.net/DTD/sodipodi-0.dtd"
   xmlns="http://www.w3.org/2000/svg"
   xmlns:svg="http://www.w3.org/2000/svg">
  <defs
     id="defs10">
    <mask
       id="hole-mask">
      <rect
         x="0"
         y="0"
         width="512"
         height="512"
         fill="white"
         id="rect1" />
      <circle
         cx="106"
         cy="96"
         r="22"
         fill="black"
         id="circle1" />
      <circle
         cx="406"
         cy="96"
         r="22"
         fill="black"
         id="circle2" />
    </mask>
    <!-- Vertical gradient: lit from above, subtle darkening toward bottom -->
    <linearGradient id="yellow-gradient" x1="0" y1="0" x2="0" y2="1">
      <stop offset="0%" stop-color="#ffc830"/>
      <stop offset="100%" stop-color="#e89f00"/>
    </linearGradient>
  </defs>
  <sodipodi:namedview
     id="namedview10"
     pagecolor="#505050"
     bordercolor="#eeeeee"
     borderopacity="1"
     inkscape:showpageshadow="0"
     inkscape:pageopacity="0"
     inkscape:pagecheckerboard="0"
     inkscape:deskcolor="#505050"
     inkscape:zoom="1.4804688"
     inkscape:cx="255.99999"
     inkscape:cy="256.67545"
     inkscape:window-width="1503"
     inkscape:window-height="933"
     inkscape:window-x="0"
     inkscape:window-y="0"
     inkscape:window-maximized="1"
     inkscape:current-layer="svg10" />
  <!-- Floppy body with holes punched through -->
  <path
     d="M122,40 H390 A82,82 0 0 1 472,122 V390 A82,82 0 0 1 390,472 H140 A20,20 0 0 1 126,466 L46,398 A20,20 0 0 1 40,384 V122 A82,82 0 0 1 122,40 Z"
     fill="url(#yellow-gradient)"
     stroke="#000000"
     stroke-width="14"
     stroke-linejoin="round"
     id="path1"
     mask="url(#hole-mask)" />
  <!-- Specular highlights -->
  <rect
     x="50"
     y="130"
     width="20"
     height="120"
     rx="10"
     fill="#ffffff"
     fill-opacity="0.7"
     id="rect2" />
  <rect
     x="50"
     y="300"
     width="16"
     height="70"
     rx="8"
     fill="#ffffff"
     fill-opacity="0.55"
     id="rect3" />
  <!-- Hole borders: position these in Inkscape, then report coordinates for mask -->
  <circle
     cx="106"
     cy="96"
     r="22"
     fill="none"
     stroke="#000000"
     stroke-width="12"
     id="hole-left"
     inkscape:label="hole-left" />
  <circle
     cx="406"
     cy="96"
     r="22"
     fill="none"
     stroke="#000000"
     stroke-width="12"
     id="hole-right"
     inkscape:label="hole-right" />
  <!-- Sticker label (shortened, corners rounded to match outer shape) -->
  <rect
     x="130.50179"
     y="112"
     width="250.99643"
     height="188"
     rx="46"
     fill="#fffbe6"
     stroke="#000000"
     stroke-width="12"
     id="rect5" />
  <!-- Metal slider -->
  <rect
     x="131"
     y="340"
     width="250"
     height="132"
     rx="20"
     fill="#E5E5E5"
     stroke="#000000"
     stroke-width="12"
     id="rect9" />
  <rect
     x="160"
     y="375"
     width="60"
     height="75"
     rx="10"
     fill="url(#yellow-gradient)"
     stroke="#000000"
     stroke-width="8"
     id="rect10" />
  <!-- Kawaii face -->
  <g
     id="g1"
     transform="matrix(0.81644503,0,0,0.81644503,46.572924,47.464915)">
    <circle
       cx="169.42451"
       cy="171.17914"
       r="33.453533"
       fill="#000000"
       id="circle8"
       style="stroke-width:3.34536" />
    <circle
       cx="343.38287"
       cy="171.17914"
       r="33.453533"
       fill="#000000"
       id="circle9"
       style="stroke-width:3.34536" />
    <path
       d="m 222.95017,221.35943 q 33.45353,33.45353 66.90706,0"
       fill="none"
       stroke-width="20.0721"
       stroke-linecap="round"
       stroke="#000000"
       id="path9" />
  </g>
</svg>
